<?xml version="1.0" encoding="UTF-8"?>
<svg version="1.1" xmlns="http://www.w3.org/2000/svg" width="320" height="320">
<path d="M0 0 C26.4 0 52.8 0 80 0 C80 6.6 80 13.2 80 20 C73.4 20 66.8 20 60 20 C60 26.6 60 33.2 60 40 C53.4 40 46.8 40 40 40 C40 46.6 40 53.2 40 60 C53.2 60 66.4 60 80 60 C80 73.2 80 86.4 80 100 C93.2 100 106.4 100 120 100 C120 113.2 120 126.4 120 140 C126.6 140 133.2 140 140 140 C140 146.6 140 153.2 140 160 C146.6 160 153.2 160 160 160 C160 179.8 160 199.6 160 220 C153.4 220 146.8 220 140 220 C140 233.2 140 246.4 140 260 C133.4 260 126.8 260 120 260 C120 266.6 120 273.2 120 280 C113.4 280 106.8 280 100 280 C100 286.6 100 293.2 100 300 C86.8 300 73.6 300 60 300 C60 306.6 60 313.2 60 320 C13.8 320 -32.4 320 -80 320 C-80 313.4 -80 306.8 -80 300 C-86.6 300 -93.2 300 -100 300 C-100 286.8 -100 273.6 -100 260 C-106.6 260 -113.2 260 -120 260 C-120 253.4 -120 246.8 -120 240 C-126.6 240 -133.2 240 -140 240 C-140 207 -140 174 -140 140 C-133.4 140 -126.8 140 -120 140 C-120 133.4 -120 126.8 -120 120 C-113.4 120 -106.8 120 -100 120 C-100 113.4 -100 106.8 -100 100 C-93.4 100 -86.8 100 -80 100 C-80 93.4 -80 86.8 -80 80 C-73.4 80 -66.8 80 -60 80 C-60 73.4 -60 66.8 -60 60 C-46.8 60 -33.6 60 -20 60 C-20 53.4 -20 46.8 -20 40 C-13.4 40 -6.8 40 0 40 C0 26.8 0 13.6 0 0 Z " fill="#FADA5E" transform="translate(160,0)"/>
<path d="M0 0 C26.4 0 52.8 0 80 0 C80 6.6 80 13.2 80 20 C73.4 20 66.8 20 60 20 C60 26.6 60 33.2 60 40 C53.4 40 46.8 40 40 40 C40 46.6 40 53.2 40 60 C53.2 60 66.4 60 80 60 C80 73.2 80 86.4 80 100 C93.2 100 106.4 100 120 100 C120 113.2 120 126.4 120 140 C126.6 140 133.2 140 140 140 C140 146.6 140 153.2 140 160 C146.6 160 153.2 160 160 160 C160 166.6 160 173.2 160 180 C146.8 180 133.6 180 120 180 C120 173.4 120 166.8 120 160 C113.4 160 106.8 160 100 160 C100 146.8 100 133.6 100 120 C86.8 120 73.6 120 60 120 C60 113.4 60 106.8 60 100 C53.4 100 46.8 100 40 100 C40 93.4 40 86.8 40 80 C7 80 -26 80 -60 80 C-60 73.4 -60 66.8 -60 60 C-46.8 60 -33.6 60 -20 60 C-20 53.4 -20 46.8 -20 40 C-13.4 40 -6.8 40 0 40 C0 26.8 0 13.6 0 0 Z " fill="#FADAB2" transform="translate(160,0)"/>
<path d="M0 0 C6.6 0 13.2 0 20 0 C20 6.6 20 13.2 20 20 C26.6 20 33.2 20 40 20 C40 26.6 40 33.2 40 40 C79.6 40 119.2 40 160 40 C160 46.6 160 53.2 160 60 C113.8 60 67.6 60 20 60 C20 53.4 20 46.8 20 40 C13.4 40 6.8 40 0 40 C0 26.8 0 13.6 0 0 Z " fill="#FAC600" transform="translate(60,260)"/>
<path d="M0 0 C26.4 0 52.8 0 80 0 C80 6.6 80 13.2 80 20 C73.4 20 66.8 20 60 20 C60 26.6 60 33.2 60 40 C53.4 40 46.8 40 40 40 C40 46.6 40 53.2 40 60 C20.2 60 0.4 60 -20 60 C-20 53.4 -20 46.8 -20 40 C-13.4 40 -6.8 40 0 40 C0 26.8 0 13.6 0 0 Z " fill="#006242" transform="translate(160,0)"/>
<path d="M0 0 C6.6 0 13.2 0 20 0 C20 6.6 20 13.2 20 20 C26.6 20 33.2 20 40 20 C40 33.2 40 46.4 40 60 C33.4 60 26.8 60 20 60 C20 53.4 20 46.8 20 40 C13.4 40 6.8 40 0 40 C0 26.8 0 13.6 0 0 Z " fill="#FAC600" transform="translate(20,200)"/>
<path d="M0 0 C6.6 0 13.2 0 20 0 C20 19.8 20 39.6 20 60 C6.8 60 -6.4 60 -20 60 C-20 53.4 -20 46.8 -20 40 C-13.4 40 -6.8 40 0 40 C0 26.8 0 13.6 0 0 Z " fill="#724832" transform="translate(160,0)"/>
<path d="M0 0 C6.6 0 13.2 0 20 0 C20 6.6 20 13.2 20 20 C13.4 20 6.8 20 0 20 C0 13.4 0 6.8 0 0 Z " fill="#FFFFFF" transform="translate(160,220)"/>
<path d="M0 0 C6.6 0 13.2 0 20 0 C20 6.6 20 13.2 20 20 C13.4 20 6.8 20 0 20 C0 13.4 0 6.8 0 0 Z " fill="#FFFFFF" transform="translate(220,160)"/>
<path d="M0 0 C6.6 0 13.2 0 20 0 C20 6.6 20 13.2 20 20 C13.4 20 6.8 20 0 20 C0 13.4 0 6.8 0 0 Z " fill="#FFFFFF" transform="translate(100,120)"/>
<path d="M0 0 C6.6 0 13.2 0 20 0 C20 6.6 20 13.2 20 20 C13.4 20 6.8 20 0 20 C0 13.4 0 6.8 0 0 Z " fill="#006242" transform="translate(140,40)"/>
</svg>
